<?xml version="1.0" encoding="UTF-8"?><svg id="uuid-873ca984-7eb3-4587-bcc7-e2c6a1c81cec" xmlns="http://www.w3.org/2000/svg" viewBox="0 0 121.56 132.91"><path d="M84.91,47.07c1.67,0,3.02-1.35,3.02-3.02s-1.35-3.02-3.02-3.02H36.53c-1.67,0-3.02,1.35-3.02,3.02s1.35,3.02,3.02,3.02h3.17c.44,5.55,2.25,17.38,9.66,24.19-7.82,7.59-9.41,23.38-9.72,30.23h-3.11c-1.67,0-3.02,1.35-3.02,3.02s1.35,3.02,3.02,3.02h48.37c1.67,0,3.02-1.35,3.02-3.02s-1.35-3.02-3.02-3.02h-3.11c-.32-6.85-1.91-22.64-9.72-30.23,7.41-6.81,9.22-18.64,9.66-24.19,0,0,3.18,0,3.18,0Zm-19.41,21.54c-1.46,.81-1.99,2.65-1.18,4.11,.29,.53,.74,.96,1.28,1.23,7.37,3.71,9.67,19.08,10.14,27.53h-30.05c.46-8.47,2.78-23.82,10.14-27.53,1.49-.75,2.09-2.57,1.34-4.06-.27-.54-.7-.99-1.23-1.28-7.68-4.26-9.65-15.97-10.16-21.54h29.88c-.51,5.58-2.49,17.28-10.16,21.54h0Zm-4.78,8.69s9.07,7.26,9.07,10.88v10.28h-18.14v-10.28c0-3.63,9.07-10.88,9.07-10.88Z"/><path d="M51.95,58.33c1.56,3.82,8.77,9.58,8.77,9.58,0,0,7.2-5.76,8.77-9.58h-17.54Zm0,0c1.56,3.82,8.77,9.58,8.77,9.58,0,0,7.2-5.76,8.77-9.58h-17.54Zm0,0c1.56,3.82,8.77,9.58,8.77,9.58,0,0,7.2-5.76,8.77-9.58h-17.54Z"/><path d="M60.72,132.91C27.24,132.91,0,105.67,0,72.19S27.24,11.47,60.72,11.47c1.93,0,3.5,1.57,3.5,3.5s-1.57,3.5-3.5,3.5c-29.62,0-53.72,24.1-53.72,53.72s24.1,53.72,53.72,53.72,53.72-24.1,53.72-53.72c0-1.93,1.57-3.5,3.5-3.5s3.5,1.57,3.5,3.5c0,33.48-27.24,60.72-60.72,60.72Z"/><path d="M49.66,30.75c-.83,0-1.67-.3-2.34-.9-1.44-1.29-1.55-3.51-.26-4.94l8.88-9.86-8.8-9.12c-1.34-1.39-1.3-3.61,.09-4.95,1.39-1.34,3.61-1.3,4.95,.09l13.32,13.82-13.24,14.7c-.69,.77-1.64,1.16-2.6,1.16Z"/><circle cx="82.69" cy="19.34" r="7.35"/><circle cx="102.5" cy="34.03" r="7.35"/><circle cx="114.21" cy="53.25" r="7.35"/></svg>