<?xml version="1.0" encoding="utf-8"?>
<!-- Generator: Adobe Illustrator 26.5.3, SVG Export Plug-In . SVG Version: 6.00 Build 0)  -->
<svg version="1.1" id="uuid-84f0bb2b-34e0-49d8-b0e8-2849ea7150e5"
	 xmlns="http://www.w3.org/2000/svg" xmlns:xlink="http://www.w3.org/1999/xlink" x="0px" y="0px" viewBox="0 0 32 32"
	 style="enable-background:new 0 0 32 32;" xml:space="preserve">
<style type="text/css">
	.st0{fill:#1C71DA;}
</style>
<g id="uuid-1fb5ad0f-d8b7-4e82-b684-00d9f990cdc6">
	<circle id="uuid-2e6c0ebd-78a2-4420-bca2-802b7d32b2d2" class="st0" cx="16" cy="27.9" r="3.1"/>
	<path id="uuid-0b557c61-b820-47b0-9363-4df96233fc7c" class="st0" d="M27.6,15.8l0.1-0.2c0.5-0.7,0.2-1.7-0.5-2.2l0,0
		c-3.4-2.1-7.2-3.1-11.3-3.1c-0.6,0-1.1,0-1.7,0.1l3.3,3.3c2.8,0.2,5.5,1.1,7.8,2.6C26.2,16.7,27.1,16.5,27.6,15.8L27.6,15.8z"/>
	<path id="uuid-be45c3c3-98a9-4cb8-9522-f6e37c5dc05d" class="st0" d="M31.3,7.2C24.3,2.8,15.9,1.6,8,3.9l2.8,2.8
		C17.3,5.3,24,6.5,29.5,10c0.7,0.5,1.6,0.2,2.1-0.5l0.1-0.2C32.2,8.7,32.1,7.6,31.3,7.2L31.3,7.2L31.3,7.2L31.3,7.2z"/>
	<path id="uuid-b7d8cf36-99a5-410a-9012-b27cc44fbe2e" class="st0" d="M0.5,2.3l3.2,3.2c-1,0.5-2.1,1-3,1.6C0,7.6-0.2,8.5,0.3,9.3
		l0,0l0.1,0.2c0.5,0.7,1.4,0.9,2.1,0.5c1.1-0.8,2.5-1.4,3.8-2l3.2,3.2c-1.6,0.6-3.2,1.3-4.7,2.2c-0.7,0.5-0.9,1.4-0.5,2.2l0,0
		l0.1,0.2c0.5,0.7,1.4,0.9,2.1,0.5c1.7-1,3.7-1.8,5.7-2.3l3.7,3.7c-2.5,0-4.9,0.7-7,2c-0.7,0.5-0.9,1.4-0.5,2.2l0,0l0,0L8.5,22
		c0.5,0.7,1.4,0.9,2.2,0.5c2.9-1.7,6.2-2,9.3-0.7l7.5,7.5l1.5-1.5L2,1L0.5,2.3z"/>
</g>
</svg>
