<?xml version="1.0" encoding="utf-8"?>
<!-- Generator: Adobe Illustrator 26.5.3, SVG Export Plug-In . SVG Version: 6.00 Build 0)  -->
<svg version="1.1" id="uuid-d5fd6629-9352-4415-ac59-daf6f2ee3e4c"
	 xmlns="http://www.w3.org/2000/svg" xmlns:xlink="http://www.w3.org/1999/xlink" x="0px" y="0px" viewBox="0 0 32 32"
	 style="enable-background:new 0 0 32 32;" xml:space="preserve">
<style type="text/css">
	.st0{fill:#1C71DA;}
	.st1{fill:#FFFFFF;}
</style>
<g id="uuid-1ba87836-4816-436e-ab8f-21f3816c0a90">
	<g id="uuid-db12f718-f17d-438b-99c1-766c0c660bb7">
		<path id="uuid-808d334b-ad2a-49db-a784-263c727225f0" class="st0" d="M16,0C7.2,0,0,7.1,0,16s7.1,16,16,16s16-7.1,16-16
			C32,7.2,24.8,0,16,0z M16,28.9C8.9,28.9,3.1,23.1,3.1,16S8.9,3.1,16,3.1S28.9,8.9,28.9,16S23.1,28.9,16,28.9z"/>
	</g>
</g>
<g id="uuid-2bcfbb77-99bb-43a3-9b8b-7c6fbfc6d1e2">
	<g id="uuid-ad771910-eb2e-428c-949a-24a4ebd25119">
		<path id="uuid-0517dc81-3fed-4f0f-9690-db7ee5d9ebf1" class="st1" d="M23.2,11.4l-2.5-2.5L16,13.5l-4.6-4.6l-2.5,2.5l4.6,4.6
			l-4.6,4.6l2.5,2.5l4.6-4.6l4.6,4.6l2.5-2.5L18.5,16L23.2,11.4z"/>
	</g>
</g>
<rect x="14.3" y="7.6" transform="matrix(0.7071 -0.7071 0.7071 0.7071 -6.6734 16.1014)" class="st0" width="3.7" height="17.1"/>
<rect x="7.6" y="14.2" transform="matrix(0.7071 -0.7071 0.7071 0.7071 -6.6149 16.0766)" class="st0" width="17.1" height="3.7"/>
</svg>
